<svg viewBox="0 0 16 16" xmlns="http://www.w3.org/2000/svg" fill-rule="evenodd" clip-rule="evenodd" stroke-linecap="round" stroke-linejoin="bevel">
  <path d="M8 1.692c-2.768 0-5.046 2.278-5.046 5.046M.43 11.785c1.385 0 2.524-2.278 2.524-5.047m1.261 1.893c0 1.73-1.708 3.154-3.785 3.154m7.57 0c-2.076 0-3.785-1.424-3.785-3.154m1.262 5.677H8m0-2.523a2.535 2.535 0 00-2.523 2.523M8 1.692c2.768 0 5.046 2.278 5.046 5.046m2.523 5.047c-1.384 0-2.523-2.278-2.523-5.047m-1.261 1.893c0 1.73 1.708 3.154 3.784 3.154m-7.57 0c2.077 0 3.786-1.424 3.786-3.154m-1.262 5.677H8m0-2.523a2.535 2.535 0 012.523 2.523" fill="none" stroke="#000" stroke-width=".6307499999999999"/>
</svg>
